<svg xmlns="http://www.w3.org/2000/svg" viewBox="0 0 24 24" fill="currentColor" xmlns:v="https://vecta.io/nano"><path d="M19.303 5.337A17.32 17.32 0 0 0 14.963 4c-.191.329-.403.775-.552 1.125a16.59 16.59 0 0 0-4.808 0c-.149-.35-.371-.796-.552-1.125-1.528.255-2.982.711-4.342 1.337-2.749 4.054-3.491 8.012-3.12 11.918a17.69 17.69 0 0 0 5.318 2.664 12.94 12.94 0 0 0 1.136-1.836 11.14 11.14 0 0 1-1.794-.86c.149-.106.297-.223.435-.34 3.46 1.581 7.207 1.581 10.624 0 .149.117.287.233.435.34a11.14 11.14 0 0 1-1.794.86 12.94 12.94 0 0 0 1.136 1.836c1.73-.531 3.502-1.337 5.318-2.664.456-4.521-.723-8.447-3.1-11.918zM8.52 14.846c-1.04 0-1.889-.944-1.889-2.101s.828-2.101 1.889-2.101c1.051 0 1.91.944 1.889 2.101 0 1.157-.838 2.101-1.889 2.101zm6.974 0c-1.04 0-1.89-.944-1.89-2.101s.829-2.101 1.89-2.101c1.051 0 1.91.944 1.889 2.101 0 1.157-.828 2.101-1.889 2.101z"/></svg>