<svg xmlns="http://www.w3.org/2000/svg" viewBox="0 0 24 24" fill="currentColor" xmlns:v="https://vecta.io/nano"><path d="M12.001 2a10 10 0 0 0-10 10c0 4.425 2.863 8.163 6.838 9.488.5.087.688-.213.688-.475l-.013-1.863c-2.512.463-3.162-.612-3.362-1.175-.112-.288-.6-1.175-1.025-1.413-.35-.187-.85-.65-.013-.662.787-.013 1.35.725 1.537 1.025.9 1.512 2.337 1.087 2.913.825.088-.65.35-1.087.638-1.337-2.225-.25-4.55-1.113-4.55-4.938a3.89 3.89 0 0 1 1.025-2.687c-.1-.25-.45-1.275.1-2.65 0 0 .838-.263 2.75 1.025a9.28 9.28 0 0 1 2.5-.337 9.28 9.28 0 0 1 2.5.337c1.913-1.3 2.75-1.025 2.75-1.025.55 1.375.2 2.4.1 2.65.637.7 1.025 1.588 1.025 2.688 0 3.838-2.337 4.688-4.562 4.938.363.313.675.912.675 1.85l-.013 2.75c0 .262.188.575.688.475C19.259 20.113 22 16.296 22.001 12a10 10 0 0 0-10-10z"/></svg>