<svg xmlns="http://www.w3.org/2000/svg" viewBox="0 0 24 24" fill="currentColor" xmlns:v="https://vecta.io/nano"><path d="M18.336 18.339h-2.666v-4.177c0-.996-.02-2.278-1.389-2.278-1.39 0-1.602 1.084-1.602 2.204v4.25h-2.665V9.75h2.56v1.171h.034c.358-.675 1.228-1.387 2.528-1.387 2.701 0 3.2 1.778 3.2 4.091v4.714h-.001zM7.004 8.575c-.858 0-1.547-.694-1.547-1.549s.69-1.547 1.547-1.547a1.55 1.55 0 0 1 1.548 1.547 1.55 1.55 0 0 1-1.548 1.549zm1.337 9.764H5.667V9.75H8.34v8.589zM19.67 3H4.329c-.734 0-1.328.58-1.328 1.297v15.407c0 .717.594 1.297 1.328 1.297h15.338c.733 0 1.334-.58 1.334-1.297V4.297c0-.716-.6-1.297-1.334-1.297h.002z"/></svg>