<svg xmlns="http://www.w3.org/2000/svg" viewBox="0 0 24 24" fill="currentColor" xmlns:v="https://vecta.io/nano"><path d="M12.244 4l3.29.073.503.022c1.429.068 2.858.183 3.566.381.945.265 1.688 1.04 1.939 2.022.4 1.559.45 4.602.456 5.338l.001.153v.011l-.001.163c-.006.736-.056 3.779-.456 5.339-.255.985-.997 1.76-1.939 2.022-.708.198-2.137.313-3.566.381l-.503.022-3.29.073-.234.001h-.01l-.245-.001c-1.13-.006-5.857-.057-7.36-.476-.945-.265-1.688-1.04-1.939-2.022-.4-1.559-.45-4.602-.456-5.339v-.327c.006-.736.056-3.779.456-5.338.255-.985.997-1.76 1.939-2.022 1.503-.418 6.23-.469 7.36-.476h.489zM9.999 8.499v7l6-3.5-6-3.5z"/></svg>